<?xml version="1.0" encoding="utf-8"?>
<!-- Generator: Adobe Illustrator 24.2.1, SVG Export Plug-In . SVG Version: 6.00 Build 0)  -->
<svg version="1.1" id="Layer_1" xmlns="http://www.w3.org/2000/svg" xmlns:xlink="http://www.w3.org/1999/xlink" x="0px" y="0px"
	 viewBox="0 0 82 82" style="enable-background:new 0 0 82 82;" xml:space="preserve">
<style type="text/css">
	.st0{fill:#8E061D;}
	.st1{fill:#FFFFFF;}
</style>
<g>
	<path class="st0" d="M81.9,41c0-7.5-2-14.6-5.6-20.6v-8c0-4.4-3.5-7.8-7.8-7.8h-8.8C54,1.7,47.7,0.1,41,0.1S28,1.7,22.4,4.6h-8.8
		c-4.4,0-7.8,3.5-7.8,7.8v8c-3.6,6-5.6,13.1-5.6,20.6s2,14.6,5.6,20.6v9.1c0,4.4,3.5,7.8,7.8,7.8h11.2c4.9,2.1,10.4,3.4,16.2,3.4
		s11.3-1.2,16.2-3.4h11.2c4.4,0,7.8-3.5,7.8-7.8v-9.1C79.9,55.6,81.9,48.5,81.9,41z"/>
	<g>
		<path class="st1" d="M35.2,10.2v8.6c0,2.8,2.8,5.6,6.6,6.4c4-0.9,6.6-3.2,6.6-6.4v-8.6L35.2,10.2z"/>
		<path class="st1" d="M35.2,35.2v8.6c0,2.8,2.8,5.6,6.6,6.4c4-0.9,6.6-3.2,6.6-6.4v-8.6H35.2z"/>
		<path class="st1" d="M35.2,59.1v8.6c0,2.8,2.8,5.6,6.6,6.4c4-0.9,6.6-3.2,6.6-6.4v-8.6L35.2,59.1z"/>
		<path class="st1" d="M10.5,35.2v8.6c0,2.8,2.8,5.6,6.6,6.4c4-0.9,6.6-3.2,6.6-6.4v-8.6H10.5z"/>
		<path class="st1" d="M70.8,35.2H57.6v8.6c0,2.8,2.8,5.6,6.6,6.4c4-0.9,6.6-3.2,6.6-6.4V35.2z"/>
	</g>
</g>
</svg>
