<?xml version="1.0" encoding="utf-8"?>
<!-- Generator: Adobe Illustrator 22.0.0, SVG Export Plug-In . SVG Version: 6.00 Build 0)  -->
<svg version="1.0" id="Layer_1" xmlns="http://www.w3.org/2000/svg" xmlns:xlink="http://www.w3.org/1999/xlink" x="0px" y="0px"
	 viewBox="0 0 620 82" style="enable-background:new 0 0 620 82;" xml:space="preserve">
<style type="text/css">
	.st0{fill:#FFFFFF;}
	.st1{fill:#8E061D;}
	.st2{fill:#646464;}
</style>
<path class="st0" d="M79,37.5c0-6.7-1.8-13-5-18.4V12c0-3.9-3.1-7-7-7h-7.9c-5-2.6-10.6-4-16.6-4S30.9,2.4,25.9,5H18
	c-3.9,0-7,3.1-7,7v7.1c-3.2,5.4-5,11.7-5,18.4s1.8,13,5,18.4V64c0,3.9,3.1,7,7,7h10c4.4,1.9,9.3,3,14.5,3s10.1-1.1,14.5-3h10
	c3.9,0,7-3.1,7-7v-8.1C77.2,50.5,79,44.2,79,37.5z"/>
<g>
	<path class="st1" d="M37.3,10l0,7.7c0,2.5,2.5,5,5.9,5.7c3.6-0.8,5.9-2.9,5.9-5.7l0-7.7L37.3,10z"/>
	<path class="st1" d="M37.3,32.3l0,7.7c0,2.5,2.5,5,5.9,5.7c3.6-0.8,5.9-2.9,5.9-5.7l0-7.7L37.3,32.3z"/>
	<path class="st1" d="M37.3,53.7l0,7.7c0,2.5,2.5,5,5.9,5.7c3.6-0.8,5.9-2.9,5.9-5.7l0-7.7L37.3,53.7z"/>
	<path class="st1" d="M15.3,32.3l0,7.7c0,2.5,2.5,5,5.9,5.7c3.6-0.8,5.9-2.9,5.9-5.7l0-7.7L15.3,32.3z"/>
	<path class="st1" d="M69.1,32.3l-11.8,0l0,7.7c0,2.5,2.5,5,5.9,5.7c3.6-0.8,5.9-2.9,5.9-5.7L69.1,32.3z"/>
</g>
<g>
	<path class="st2" d="M531.1,47.4c-2.7,0-4.7,0.6-5.9,1.7c-1.2,1.2-2,3.2-2.3,6c-0.4,3,0,4.9,1.2,5.9c1.2,1,2.9,1.5,5.3,1.5
		c2.6,0,4.5-0.6,5.8-1.7c1.3-1.1,2.1-3.1,2.4-6.1c0.3-2.4,0.1-4.3-0.7-5.5C536.1,48,534.2,47.4,531.1,47.4z"/>
	<path class="st2" d="M569.3,18.5c-2.2,0-4.3,0.3-6.3,1c-2,0.7-3.5,1-4.3,1c-0.7,0-1.8-0.2-3.2-0.5c-1.4-0.3-2.7-0.5-3.7-0.5
		c-3.4,0-5.3,1.6-5.7,4.8l-5.6,45.8c-0.2,2,0,3.4,0.6,4.3c0.6,0.9,2,1.3,4.1,1.3c2.2,0,3.7-0.5,4.5-1.6c0.8-1.1,1.4-3.2,1.8-6.4
		c0.3-2.5,0.9-4.2,1.8-5.1c0.9-1,2-1.4,3.5-1.4c1.2,0.3,2.5,0.5,3.8,0.8c1.3,0.2,2.5,0.4,3.7,0.4c5.7,0,10.3-2,13.9-5.9
		c3.6-4,5.8-9.5,6.6-16.7c0.8-6.4-0.2-11.6-3-15.4C578.8,20.5,574.7,18.5,569.3,18.5z M574.1,39.7c-0.6,4.6-1.9,8.2-3.9,10.9
		c-2.1,2.6-4.6,4-7.6,4c-2.8,0-4.9-1.3-6.4-3.9c-1.5-2.6-1.9-6-1.4-10.1c0.5-4.3,1.9-7.8,4.1-10.3c2.2-2.6,4.7-3.8,7.6-3.8
		c3,0,5.1,1.3,6.5,3.7C574.1,32.6,574.6,35.8,574.1,39.7z"/>
	<path class="st2" d="M612.4,18.7c-1.8-1-2.9-1.9-3.3-2.7c-0.4-0.8-0.5-2.1-0.3-4c0.2-1.7,0-3.1-0.7-4.3c-0.7-1.2-2.2-1.8-4.7-1.8
		c-2,0-3.6,0.5-4.9,1.4c-1.2,1-2,2.5-2.2,4.5c-0.1,1.2-0.3,2-0.4,2.4c-0.1,0.5-0.5,1.1-1,2c-1.4,1.2-2.7,2.2-3.9,3.2
		c-1.2,1-1.8,2-2,2.9c-0.1,1.2,0.2,2.1,0.9,2.9c0.8,0.8,1.6,1.7,2.7,2.7c0.5,0.8,0.8,1.8,0.9,3c0.1,1.2,0,2.7-0.2,4.4l-1.8,14.8
		c-1,8.1,3.1,12.2,12.2,12.2c4.4,0,6.8-1.8,7.2-5.3c0.2-1.9-0.6-3.6-2.6-4.9c-2-1.3-3-2.3-3.3-3s-0.4-1.3-0.5-1.9
		c-0.1-0.6,0-1.6,0.1-2.9l1.2-9.6l0.2-1.7c0.1-0.9,0.2-1.6,0.4-2.1c0.1-0.5,0.4-1.1,0.9-1.9c0.5-0.8,1.7-1.7,3.8-2.8
		c2.1-1.1,3.3-2.3,3.4-3.7C615,21,614.1,19.8,612.4,18.7z"/>
</g>
<g>
	<path class="st0" d="M145,21.4c-2.8-2.1-7.3-3.1-13.5-3.1c-5.8,0-10.1,1-13,3.1c-2.9,2.1-4.5,4.1-4.8,6.1c-0.2,1.3,0.2,2.1,1,2.6
		c0.9,0.5,2,0.7,3.4,0.7c2.4,0,4.7-0.9,7-2.7c2.3-1.8,4.4-2.7,6.5-2.7c1.7,0,3,0.5,4,1.5c1,1,1.4,2.3,1.2,3.9
		c-0.1,1.1-0.8,2.1-2,2.9c-1.2,0.8-4.1,1.5-8.7,2.1s-8.7,2.2-12.2,4.8c-3.5,2.6-5.5,5.8-6,9.6c-0.5,3.7,0.4,6.7,2.6,9
		c2.2,2.3,5.5,3.5,10,3.5c1.6,0,3.8-0.4,6.7-1.3c2.9-0.9,4.8-1.3,5.6-1.3c0.6,0,1.6,0.2,3,0.7c1.4,0.5,2.8,0.7,4,0.7
		c1.5,0,2.8-0.3,3.7-0.9c0.9-0.6,1.4-1.7,1.6-3.2l3-24.7C148.9,27.3,147.8,23.5,145,21.4z M134.8,46.1c-0.3,2.1-1.4,4.1-3.4,5.7
		c-2,1.7-4.1,2.5-6.2,2.5c-1.8,0-3.2-0.5-4.1-1.5c-0.9-1-1.3-2.3-1.1-3.7c0.2-2,1.6-3.7,4.2-5c2.5-1.3,4.9-1.9,7-1.9
		c1.4,0,2.4,0.4,3,1.1C134.8,43.9,135,44.9,134.8,46.1z"/>
	<path class="st0" d="M176.1,17.9c-5.9,0-11.1,1.9-15.6,5.7c-4.5,3.8-7.2,9.7-8.2,17.5c-0.8,6.8,0.5,12.1,3.9,15.8
		c3.4,3.7,8.3,5.6,14.6,5.6c5.5,0,10.1-1.2,13.7-3.6c3.6-2.4,5.6-4.6,5.8-6.4c0.1-1-0.4-1.9-1.5-2.9c-1.1-0.9-2.3-1.4-3.6-1.4
		c-1.2,0-3.1,1-5.6,2.9c-2.5,1.9-5.1,2.9-7.6,2.9c-2.1,0-4-0.8-5.6-2.4c-1.6-1.6-2.3-3.3-2-5.2c0.4-2.9,2.4-4.3,6.3-4.3H184h3.8
		c2,0,3.5-0.3,4.5-1c0.9-0.7,1.5-1.9,1.7-3.7c0.7-5.5-0.7-10.1-4-13.8C186.7,19.8,182.1,17.9,176.1,17.9z M181.8,32.1
		c-0.3,2.3-3.2,3.5-8.7,3.5c-4.5,0-6.6-1.3-6.3-3.8c0.2-1.4,1.1-2.7,2.9-3.7c1.7-1,3.5-1.6,5.3-1.6c1.9,0,3.6,0.6,4.9,1.8
		C181.4,29.4,182,30.7,181.8,32.1z"/>
	<path class="st0" d="M222.5,18.9c-0.8,0-1.8,0.2-2.9,0.5c-1.1,0.3-2,0.5-2.9,0.5c-0.4,0-1.5-0.3-3.3-0.9c-1.8-0.6-3.7-0.9-5.6-0.9
		c-2.4,0-4.1,0.5-5.1,1.5c-1,1-1.6,2.7-1.9,4.9l-3.8,30.9c-0.5,4.4,0.8,6.6,4,6.6h3.3c3.4,0,5.4-2.1,5.9-6.3l2.1-17
		c0.5-4.1,2.4-6.6,5.8-7.6c3.4-1,5.5-2,6.3-2.9c0.8-0.9,1.3-2.4,1.6-4.5C226.4,20.5,225.2,18.9,222.5,18.9z"/>
	<path class="st0" d="M268.2,23.6c-4.1-3.6-9.2-5.4-15.3-5.4c-6.3,0-11.9,1.9-16.7,5.6c-4.8,3.8-7.7,9.3-8.6,16.6
		c-0.9,7,0.6,12.5,4.2,16.4c3.7,3.9,8.8,5.9,15.3,5.9c7.5,0,13.5-2.1,17.9-6.2c4.4-4.1,7.1-9.5,7.9-16.2
		C273.8,32.8,272.3,27.2,268.2,23.6z M261.2,40.3c-0.5,3.9-1.9,7.2-4.3,9.8c-2.4,2.6-5.1,3.9-8.3,3.9c-3.3,0-5.8-1.3-7.5-3.8
		c-1.7-2.6-2.3-5.8-1.8-9.8c0.5-4.2,2-7.4,4.3-9.7c2.4-2.3,5.1-3.5,8.3-3.5c3.4,0,5.9,1.2,7.5,3.7C261.1,33.3,261.7,36.5,261.2,40.3
		z"/>
	<path class="st0" d="M330.5,20c-2.3,0-5.2,0.6-8.6,1.9c-3.4,1.3-5.2,1.9-5.4,1.9c-1.2,0-2.8-0.6-5-1.9c-2.2-1.3-4.4-1.9-6.7-1.9
		c-1.5,0-3.5,0.4-5.9,1.1c-2.5,0.7-4.2,1.1-5.2,1.1c-0.7,0-1.9-0.2-3.6-0.6c-1.8-0.4-3.1-0.6-4-0.6c-3.5,0-5.5,1.5-5.8,4.5
		l-3.9,31.7c-0.4,3.2,1.1,4.8,4.4,4.8c3.3,0,5.1-1.4,5.5-4.3l2.2-18.1c0.5-3.7,1.5-6.5,3.1-8.5c1.6-2,3.8-3,6.5-3
		c5.3,0,7.5,3.7,6.6,11l-2.3,18.6c-0.4,2.9,1.1,4.3,4.4,4.3c3.3,0,5.1-1.4,5.5-4.3l2.2-17.7c0.5-4,1.6-7,3.3-9s3.8-2.9,6.4-2.9
		c5.3,0,7.4,4.1,6.4,12.4l-2.1,17.2c-0.4,2.9,1.1,4.3,4.4,4.3c3.3,0,5.1-1.4,5.5-4.3l3.1-25.6c0.5-4-0.1-7-1.9-9
		C337.8,21,334.8,20,330.5,20z"/>
	<path class="st0" d="M386.4,23.6c-4.1-3.6-9.2-5.4-15.3-5.4c-6.3,0-11.9,1.9-16.7,5.6c-4.8,3.8-7.7,9.3-8.6,16.6
		c-0.9,7,0.6,12.5,4.2,16.4c3.7,3.9,8.8,5.9,15.3,5.9c7.5,0,13.5-2.1,17.9-6.2c4.4-4.1,7.1-9.5,7.9-16.2
		C392,32.8,390.4,27.2,386.4,23.6z M379.4,40.3c-0.5,3.9-1.9,7.2-4.3,9.8c-2.4,2.6-5.1,3.9-8.3,3.9c-3.3,0-5.8-1.3-7.5-3.8
		c-1.7-2.6-2.3-5.8-1.8-9.8c0.5-4.2,2-7.4,4.3-9.7c2.4-2.3,5.1-3.5,8.3-3.5c3.4,0,5.9,1.2,7.5,3.7C379.3,33.3,379.9,36.5,379.4,40.3
		z"/>
	<path class="st0" d="M474.5,21.4c-2.8-2.1-7.3-3.1-13.5-3.1c-5.8,0-10.1,1-13,3.1c-2.9,2.1-4.5,4.1-4.8,6.1c-0.2,1.3,0.2,2.1,1,2.6
		c0.9,0.5,2,0.7,3.4,0.7c2.4,0,4.7-0.9,7-2.7c2.3-1.8,4.4-2.7,6.5-2.7c1.7,0,3,0.5,4,1.5c1,1,1.4,2.3,1.2,3.9
		c-0.1,1.1-0.8,2.1-2,2.9c-1.2,0.8-4.1,1.5-8.7,2.1s-8.7,2.2-12.2,4.8c-3.5,2.6-5.5,5.8-6,9.6c-0.5,3.7,0.4,6.7,2.6,9
		c2.2,2.3,5.5,3.5,10,3.5c1.6,0,3.8-0.4,6.7-1.3c2.9-0.9,4.8-1.3,5.6-1.3c0.6,0,1.6,0.2,3,0.7c1.4,0.5,2.8,0.7,4,0.7
		c1.5,0,2.8-0.3,3.7-0.9c0.9-0.6,1.4-1.7,1.6-3.2l3-24.7C478.3,27.3,477.3,23.5,474.5,21.4z M464.3,46.1c-0.3,2.1-1.4,4.1-3.4,5.7
		c-2,1.7-4.1,2.5-6.2,2.5c-1.8,0-3.2-0.5-4.1-1.5c-0.9-1-1.3-2.3-1.1-3.7c0.2-2,1.6-3.7,4.2-5c2.5-1.3,4.9-1.9,7-1.9
		c1.4,0,2.4,0.4,3,1.1C464.2,43.9,464.4,44.9,464.3,46.1z"/>
	<path class="st0" d="M517,40.1c-1.9-2.1-5-3.6-9.3-4.5c-4.2-0.8-7.1-1.6-8.4-2.4c-1.4-0.7-2-1.9-1.8-3.4c0.1-1.1,0.7-1.9,1.8-2.5
		c1.1-0.5,2.2-0.8,3.6-0.8c2,0,4,0.4,6.1,1.2c2.1,0.8,3.6,1.2,4.6,1.2c1.2,0,2.4-0.5,3.6-1.5c1.2-1,1.9-2,2.1-3.1
		c0.2-1.6-1.3-3.2-4.4-4.5c-3.2-1.4-6.9-2.1-11.2-2.1c-4.7,0-9,1.3-12.8,3.8c-3.8,2.5-6,5.9-6.5,10.2c-0.4,3.2,0.4,5.8,2.4,7.6
		c2,1.9,4.3,3.2,7.1,3.9c2.8,0.7,5.6,1.5,8.5,2.3c2.9,0.8,4.3,2.2,4,4.2c-0.1,1-0.8,2-2,2.9c-1.2,0.9-2.7,1.4-4.4,1.4
		c-2.8,0-5.4-0.7-7.9-2.1c-2.5-1.4-4.3-2.1-5.6-2.1c-1.3,0-2.5,0.5-3.6,1.4c-1.1,0.9-1.8,2-1.9,3.3c-0.2,1.8,1.3,3.6,4.5,5.4
		c3.2,1.9,7.5,2.8,12.8,2.8c5.7,0,10.5-1.3,14.5-4c4-2.7,6.2-6.3,6.8-10.8C519.7,44.8,519,42.2,517,40.1z"/>
	<path class="st0" d="M430.6,20.3c-3.4-1.9-7.1-2.9-11.2-2.9c-6.6,0-12.2,2.1-16.7,6.3c-4.5,4.2-7.2,9.7-8,16.4
		c-0.9,7.4,0.4,13,3.9,16.8c3.5,3.8,8.6,5.8,15.2,5.8c4.7,0,8.8-1.1,12.5-3.4c3.7-2.3,5.6-4.4,5.8-6.3c0.1-1.2-0.2-2.2-1.1-3
		c-0.9-0.8-2-1.2-3.3-1.2c-1.4,0-3.1,0.7-5,2.1c-1.9,1.4-4,2.1-6.4,2.1c-3,0-5.2-1.1-6.8-3.4c-1.6-2.3-2.1-5.5-1.6-9.6
		c0.5-4.5,1.9-7.7,4.1-9.7c2.2-2,4.5-3,7-3c1.3,0,3,0.6,5.1,1.9c2.1,1.3,3.5,1.9,4.3,1.9c1.8,0,3.4-0.5,4.7-1.4c1.3-1,2-2,2.2-3.2
		C435.5,24.3,434,22.3,430.6,20.3z"/>
</g>
<path class="st2" d="M418.7,69.7c-1-0.7-1.8-1.3-2.4-1.8c-0.5-0.5-0.8-1.1-0.7-1.8c0.2-1.6,1.4-2.9,3.6-3.9
	c-1.7,0.4-3.5,0.6-5.4,0.6c-2.5,0-4.8-0.3-6.9-0.8c1.3,0.6,2.1,1.3,2.5,1.8c0.6,0.9,0.8,2.3,0.6,4.2c-0.1,1,0.6,2.1,2.2,3.3
	c1.6,1.2,2.3,2.4,2.2,3.5c-0.1,1.2-0.9,2.2-2.4,3.1c-1.4,0.9-2.2,1.5-2.2,1.6c-0.1,0.4,0.3,0.7,1.1,0.9c0.8,0.2,1.5,0.2,2.2,0.2
	c1.8,0,3.5-0.6,5.2-1.7c1.7-1.2,2.6-2.7,2.8-4.7c0.1-0.5-0.1-1.3-0.4-2.1C420.4,71.2,419.7,70.4,418.7,69.7z"/>
</svg>
