<svg id="68306cd8-cfe0-42c5-a99b-336813038737" data-name="Layer 1" xmlns="http://www.w3.org/2000/svg" viewBox="0 0 49.99 50"><title>face_logo</title><path d="M25,0A25,25,0,1,0,50,25,25,25,0,0,0,25,0Z" fill="#646464" fill-rule="evenodd"/><path d="M27.08,48.67V30.34h5.21V24.65H27.08V22.82a3.9,3.9,0,0,1,.68-2.77,2.77,2.77,0,0,1,2.14-.74,12.39,12.39,0,0,1,3.25.45l.92-5a17.42,17.42,0,0,0-5.88-.85A9.6,9.6,0,0,0,23.29,15a5.42,5.42,0,0,0-2.64,2.69,12.92,12.92,0,0,0-.74,5v2H16v5.69h3.93v17.9a23.87,23.87,0,1,1,7.17.43Z" fill="#fff"/></svg>