<svg xmlns="http://www.w3.org/2000/svg" viewBox="0 0 50 49.99"><title>googl_logo</title><circle cx="25" cy="25" r="24.63" fill="#fff"/><path d="M25,0A25,25,0,1,0,50,25,25,25,0,0,0,25,0Zm0,48.78A23.78,23.78,0,1,1,48.78,25,23.77,23.77,0,0,1,25,48.73Z" transform="translate(0 0.05)" fill="#646464"/><path d="M19.05,23v4.67H25.4c-1,3-2.54,4.67-6.35,4.67a7,7,0,0,1,0-14,6.65,6.65,0,0,1,4.56,1.72c1-1,.89-1.11,3.35-3.44a11.77,11.77,0,1,0-7.91,20.49c9.7,0,12.08-8.46,11.29-14.11Z" transform="translate(0 0.05)" fill="#646464"/><polygon points="40.23 23.28 40.23 19.2 37.32 19.2 37.32 23.28 33.13 23.28 33.13 26.2 37.32 26.2 37.32 30.39 40.23 30.39 40.23 26.2 44.31 26.2 44.31 23.28 40.23 23.28" fill="#646464"/></svg>