<svg id="Layer_1" data-name="Layer 1" xmlns="http://www.w3.org/2000/svg" viewBox="0 0 49.99 50"><defs><style>.cls-1{fill:#fff;}.cls-2{fill:#646464;fill-rule:evenodd;}</style></defs><title>insta_logo</title><circle class="cls-1" cx="24.98" cy="25" r="24.73"/><path class="cls-2" d="M25,0A25,25,0,1,0,50,25,25,25,0,0,0,25,0Zm0,48.78A23.78,23.78,0,1,1,48.77,25,23.78,23.78,0,0,1,25,48.78Z"/><path class="cls-2" d="M34.45,12.17H15.55c-2.25,0-3.42,1.19-3.42,3.43V34.48a3,3,0,0,0,3.31,3.35h19a3,3,0,0,0,3.4-3.38V15.52A3,3,0,0,0,34.45,12.17ZM25,20A5,5,0,1,1,20,25,5.1,5.1,0,0,1,25,20ZM34.92,33.4c0,1.2-.33,1.53-1.53,1.53H16.59c-1.18,0-1.51-.33-1.51-1.53,0-3.1,0-6.25,0-9.37,0-.89.24-1.08,1.06-1.06,1.18.1,1.2.05,1.07,1.2a7.93,7.93,0,0,0,6.2,8.59,8,8,0,0,0,9.18-5.52,7.84,7.84,0,0,0,.17-3.69c-.08-.46,0-.53.43-.53,1.77-.15,1.77-.17,1.77,1.67ZM32.41,20.11c-2.52,0-2.52,0-2.52-2.52s0-2.51,2.48-2.51,2.55,0,2.55,2.55S34.92,20.11,32.41,20.11Z"/></svg>