<svg xmlns="http://www.w3.org/2000/svg" viewBox="0 0 49.99 50"><title>twit_logo</title><circle cx="25" cy="24.87" r="24.72" fill="#fff"/><path d="M25,0A25,25,0,1,0,50,25,25,25,0,0,0,25,0Zm0,48.78A23.78,23.78,0,1,1,48.78,25,23.79,23.79,0,0,1,25,48.78Z" fill="#646464" fill-rule="evenodd"/><path d="M40.18,13a.7.7,0,0,1-.27.17,11.45,11.45,0,0,1-3.3,1.29.69.69,0,0,1-.69-.16,6.2,6.2,0,0,0-7.36-.91A6.27,6.27,0,0,0,25.46,20c0,.23,0,.37-.3.33s-.94-.1-1.38-.19A17.73,17.73,0,0,1,12.87,14c-.21-.25-.27-.25-.42.06a6.4,6.4,0,0,0,1,7.08c.31.32.65.6,1.05,1A6.06,6.06,0,0,1,12,21.44c-.25-.12-.33-.09-.31.19A6.29,6.29,0,0,0,15.11,27a6.52,6.52,0,0,0,1.47.57,5,5,0,0,1-2.29.14c-.37,0-.37,0-.23.31a6.12,6.12,0,0,0,3,3.34,6.26,6.26,0,0,0,2.7.67,11.58,11.58,0,0,1-2.61,1.58,13.61,13.61,0,0,1-6.52,1.12.22.22,0,0,1,.13.06,17.81,17.81,0,0,0,12.44,2.42,16.9,16.9,0,0,0,10.44-5.85A18.27,18.27,0,0,0,37.93,19.1a.5.5,0,0,1,.23-.49A13,13,0,0,0,40.75,16c.07-.12.18-.21.16-.36a13,13,0,0,1-3.37.88A6.19,6.19,0,0,0,40.18,13Z" fill="#646464" fill-rule="evenodd"/></svg>